# File created by Blade
# Date/Time:  Wed Sep 24 19:25:39 2014
# Frame Rate: 120.000 fps
#------------------------------------------------------
:FULLY-SPECIFIED
:DEGREES
1859
root -15.270396 32.661520 -4.761131 13.893155 35.466008 3.931836
Spine -13.522826 2.741348 11.838063
Head 8.845523 1.179964 -5.244320
LeftShoulder -13.516655 23.411384 4.456257
LeftArm 27.968379 31.832503 -68.418214
LeftForeArm 15.894738 -0.000000 54.378561
LeftHand -26.920384 -0.000000 -3.283693
LeftHandThumb1 -26.253704 0.000000 33.147579
RightShoulder -18.403929 11.256189 -31.739317
RightArm -7.738006 14.564750 65.884898
RightForeArm -11.629584 -0.000000 124.795548
RightHand -12.846399 -0.000000 -2.610020
RightHandThumb1 -24.326973 -0.000000 -32.862282
LeftUpLeg -20.993458 41.471136 1.490815
LeftLeg 104.483773 -0.000000 -0.000000
LeftFoot 32.605495 20.411060 -27.197911
LeftToeBase 23.072513 -0.000000 -0.000000
RightUpLeg -9.592159 -6.801020 5.564847
RightLeg 1.168539 -0.000000 -0.000000
RightFoot -10.845176 -14.468658 -4.934543
RightToeBase 0.448379 -0.000000 -0.000000
1860
root -15.262403 32.661961 -4.756427 13.889052 35.686472 3.969055
Spine -13.477458 2.694756 11.863878
Head 8.816001 1.067346 -5.322840
LeftShoulder -13.485808 23.378636 4.435732
LeftArm 28.017289 31.933054 -68.445684
LeftForeArm 15.852108 0.000000 54.415912
LeftHand -26.974367 -0.000000 -3.194963
LeftHandThumb1 -26.253704 0.000000 33.147579
RightShoulder -18.426875 11.218446 -31.740757
RightArm -7.802536 14.606877 65.798194
RightForeArm -11.368747 -0.000000 124.907349
RightHand -12.853151 -0.000000 -2.489785
RightHandThumb1 -24.326973 -0.000000 -32.862282
LeftUpLeg -21.079184 41.789812 1.360205
LeftLeg 104.329488 -0.000000 -0.000000
LeftFoot 32.535697 20.466376 -27.441701
LeftToeBase 23.697420 -0.000000 -0.000000
RightUpLeg -9.539701 -6.813906 5.541092
RightLeg 1.153277 -0.000000 -0.000000
RightFoot -10.788614 -14.641729 -4.982665
RightToeBase 0.344363 -0.000000 -0.000000
1861
root -15.256142 32.661994 -4.751734 13.908447 35.926718 4.021718
Spine -13.454833 2.620645 11.862951
Head 8.797279 0.959106 -5.360957
LeftShoulder -13.452261 23.348477 4.436002
LeftArm 28.041628 32.033493 -68.484197
LeftForeArm 15.906471 0.000000 54.457481
LeftHand -26.977369 0.000000 -3.170266
LeftHandThumb1 -26.253704 0.000000 33.147579
RightShoulder -18.449248 11.168635 -31.757062
RightArm -7.813067 14.575119 65.768514
RightForeArm -11.482821 -0.000000 124.939861
RightHand -12.747333 -0.000000 -2.318275
RightHandThumb1 -24.326973 -0.000000 -32.862282
LeftUpLeg -21.213610 42.109028 1.181793
LeftLeg 104.185706 -0.000000 -0.000000
LeftFoot 33.041214 20.051181 -26.634460
LeftToeBase 22.804333 -0.000000 -0.000000
RightUpLeg -9.500883 -6.847532 5.514726
RightLeg 1.135138 -0.000000 -0.000000
RightFoot -10.745726 -14.832187 -5.062474
RightToeBase 0.278842 -0.000000 -0.000000
1862
root -15.253581 32.662629 -4.747870 13.921295 36.183653 4.043916
Spine -13.440736 2.528964 11.900435
Head 8.760522 0.870378 -5.405415
LeftShoulder -13.439694 23.314295 4.417110
LeftArm 28.065158 32.160674 -68.498949
LeftForeArm 16.071755 -0.000000 54.495201
LeftHand -26.914812 -0.000000 -3.062519
LeftHandThumb1 -26.253704 0.000000 33.147579
RightShoulder -18.468485 11.169012 -31.770225
RightArm -7.867683 14.470284 65.698556
RightForeArm -11.668011 -0.000000 125.021082
RightHand -12.971791 0.000000 -2.483688
RightHandThumb1 -24.326973 -0.000000 -32.862282
LeftUpLeg -21.365494 42.299319 1.042604
LeftLeg 104.081796 -0.000000 -0.000000
LeftFoot 32.664225 20.271654 -27.242641
LeftToeBase 23.739539 -0.000000 -0.000000
RightUpLeg -9.479894 -6.933627 5.525772
RightLeg 1.118374 -0.000000 -0.000000
RightFoot -10.689766 -14.959320 -5.139284
RightToeBase 0.222351 -0.000000 -0.000000
1863
root -15.251114 32.663664 -4.746411 13.955978 36.413541 4.084406
Spine -13.429715 2.471796 11.903560
Head 8.720115 0.732422 -5.450556
LeftShoulder -13.426183 23.296551 4.399295
LeftArm 28.107697 32.215397 -68.519743
LeftForeArm 15.922735 0.000000 54.568197
LeftHand -27.014641 0.000000 -3.177602
LeftHandThumb1 -26.253704 0.000000 33.147579
RightShoulder -18.502291 11.129814 -31.776197
RightArm -7.867632 14.385730 65.662585
RightForeArm -11.805170 -0.000000 125.059838
RightHand -12.971189 0.000000 -2.589731
RightHandThumb1 -24.326973 -0.000000 -32.862282
LeftUpLeg -21.536212 42.537766 0.869481
LeftLeg 103.969147 -0.000000 -0.000000
LeftFoot 32.653618 20.370592 -27.419829
LeftToeBase 23.730821 -0.000000 -0.000000
RightUpLeg -9.489150 -6.956011 5.516273
RightLeg 1.132818 -0.000000 -0.000000
RightFoot -10.633094 -15.144089 -5.209264
RightToeBase 0.132747 -0.000000 -0.000000
1864
root -15.244713 32.663895 -4.744439 13.989951 36.641388 4.133591
Spine -13.422479 2.428270 11.897232
Head 8.701629 0.570936 -5.499992
LeftShoulder -13.396228 23.246482 4.408910
LeftArm 28.089348 32.316566 -68.574998
LeftForeArm 15.974143 -0.000000 54.625689
LeftHand -27.007262 -0.000000 -3.208541
LeftHandThumb1 -26.253704 0.000000 33.147579
RightShoulder -18.532311 11.088856 -31.770947
RightArm -7.909873 14.367435 65.551566
RightForeArm -11.723273 -0.000000 125.108701
RightHand -12.900866 -0.000000 -2.230009
RightHandThumb1 -24.326973 -0.000000 -32.862282
LeftUpLeg -21.688522 42.751061 0.681980
LeftLeg 103.863637 -0.000000 -0.000000
LeftFoot 32.750691 20.241071 -27.286352
LeftToeBase 23.608561 -0.000000 -0.000000
RightUpLeg -9.483996 -7.012666 5.500013
RightLeg 1.138647 -0.000000 -0.000000
RightFoot -10.566588 -15.336599 -5.376800
RightToeBase 0.086842 -0.000000 -0.000000
1865
root -15.239276 32.663635 -4.739856 14.011969 36.864726 4.174739
Spine -13.408052 2.386303 11.887366
Head 8.677605 0.422921 -5.533679
LeftShoulder -13.382455 23.229370 4.418602
LeftArm 28.100903 32.395986 -68.613975
LeftForeArm 15.985365 0.000000 54.672218
LeftHand -26.936643 -0.000000 -3.191621
LeftHandThumb1 -26.253704 0.000000 33.147579
RightShoulder -18.578954 11.069044 -31.780938
RightArm -7.944137 14.241454 65.475402
RightForeArm -11.897835 -0.000000 125.124130
RightHand -12.975389 -0.000000 -2.465912
RightHandThumb1 -24.326973 -0.000000 -32.862282
LeftUpLeg -21.833377 42.965741 0.491739
LeftLeg 103.752508 -0.000000 -0.000000
LeftFoot 33.212574 19.759212 -26.444354
LeftToeBase 22.756584 -0.000000 -0.000000
RightUpLeg -9.465188 -7.085455 5.499454
RightLeg 1.131835 -0.000000 -0.000000
RightFoot -10.475176 -15.517592 -5.545597
RightToeBase -0.033807 -0.000000 0.000000
1866
root -15.232111 32.662771 -4.734506 14.035579 37.087764 4.228072
Spine -13.396584 2.335802 11.867866
Head 8.654511 0.260557 -5.571714
LeftShoulder -13.368316 23.218019 4.433205
LeftArm 28.100887 32.468326 -68.649057
LeftForeArm 16.015369 -0.000000 54.727158
LeftHand -26.903816 -0.000000 -3.247423
LeftHandThumb1 -26.253704 0.000000 33.147579
RightShoulder -18.598510 11.058472 -31.786792
RightArm -8.026695 14.206555 65.381129
RightForeArm -11.765036 -0.000000 125.153786
RightHand -13.031220 -0.000000 -2.567026
RightHandThumb1 -24.326973 -0.000000 -32.862282
LeftUpLeg -21.948797 43.097418 0.324099
LeftLeg 103.648693 -0.000000 -0.000000
LeftFoot 33.081004 19.962516 -26.813259
LeftToeBase 22.914409 -0.000000 -0.000000
RightUpLeg -9.424729 -7.178407 5.490273
RightLeg 1.096940 -0.000000 -0.000000
RightFoot -10.361953 -15.711898 -5.814896
RightToeBase -0.170067 -0.000000 0.000000
1867
root -15.226327 32.662092 -4.730106 14.058822 37.313830 4.277386
Spine -13.386103 2.306939 11.845421
Head 8.627413 0.054737 -5.609770
LeftShoulder -13.334373 23.223952 4.447366
LeftArm 28.131473 32.513303 -68.664582
LeftForeArm 15.953161 0.000000 54.780325
LeftHand -26.931048 -0.000000 -3.363523
LeftHandThumb1 -26.253704 0.000000 33.147579
RightShoulder -18.632682 10.975795 -31.788047
RightArm -8.040435 14.134688 65.318157
RightForeArm -11.892832 -0.000000 125.147693
RightHand -13.075311 -0.000000 -2.748205
RightHandThumb1 -24.326973 -0.000000 -32.862282
LeftUpLeg -22.059269 43.188176 0.169458
LeftLeg 103.555225 -0.000000 -0.000000
LeftFoot 32.950777 20.051173 -27.066779
LeftToeBase 23.227396 -0.000000 -0.000000
RightUpLeg -9.389682 -7.266476 5.490324
RightLeg 1.059331 -0.000000 -0.000000
RightFoot -10.221955 -15.920155 -6.099625
RightToeBase -0.339546 -0.000000 0.000000
1868
root -15.223474 32.660343 -4.726872 14.086661 37.533865 4.323451
Spine -13.373991 2.275836 11.810756
Head 8.591739 -0.146889 -5.625484
LeftShoulder -13.306282 23.214377 4.482880
LeftArm 28.146213 32.563645 -68.692163
LeftForeArm 15.975602 -0.000000 54.817769
LeftHand -26.936528 0.000000 -3.421158
LeftHandThumb1 -26.253704 0.000000 33.147579
RightShoulder -18.642983 10.930389 -31.776766
RightArm -8.111651 14.079457 65.204450
RightForeArm -11.897447 0.000000 125.170198
RightHand -13.032811 -0.000000 -2.695804
RightHandThumb1 -24.326973 -0.000000 -32.862282
LeftUpLeg -22.196139 43.284683 0.001271
LeftLeg 103.478665 -0.000000 -0.000000
LeftFoot 32.953051 19.933865 -26.976755
LeftToeBase 23.345017 -0.000000 -0.000000
RightUpLeg -9.360720 -7.323140 5.492827
RightLeg 1.013520 -0.000000 -0.000000
RightFoot -10.089505 -16.157212 -6.391906
RightToeBase -0.449710 -0.000000 0.000000
1869
root -15.222289 32.658304 -4.722652 14.112678 37.757060 4.348475
Spine -13.378868 2.234975 11.794867
Head 8.564291 -0.358198 -5.641094
LeftShoulder -13.285385 23.210994 4.521040
LeftArm 28.143095 32.616140 -68.729651
LeftForeArm 15.993586 -0.000000 54.857988
LeftHand -27.002034 -0.000000 -3.442465
LeftHandThumb1 -26.253704 0.000000 33.147579
RightShoulder -18.647076 10.894784 -31.771917
RightArm -8.167306 14.017261 65.103706
RightForeArm -11.956774 -0.000000 125.153290
RightHand -13.029709 -0.000000 -2.733188
RightHandThumb1 -24.326973 -0.000000 -32.862282
LeftUpLeg -22.332186 43.335930 -0.136331
LeftLeg 103.422295 -0.000000 -0.000000
LeftFoot 32.814395 20.057575 -27.174021
LeftToeBase 23.593135 -0.000000 -0.000000
RightUpLeg -9.343860 -7.416480 5.527278
RightLeg 0.964334 -0.000000 -0.000000
RightFoot -9.978021 -16.372718 -6.696155
RightToeBase -0.444719 -0.000000 0.000000
